<svg xmlns="http://www.w3.org/2000/svg" viewBox="0 0 512 512" width="512" height="512">
  <rect width="512" height="512" rx="80" fill="#06061a"/>
  <rect x="150" y="0" width="212" height="512" fill="#1a1a28"/>
  <line x1="256" y1="20" x2="256" y2="492" stroke="#363660" stroke-width="8" stroke-dasharray="40,40"/>
  <!-- 兵士 -->
  <ellipse cx="220" cy="400" rx="22" ry="8" fill="rgba(0,0,0,0.4)"/>
  <rect x="207" y="352" width="13" height="40" fill="#334155"/>
  <rect x="222" y="352" width="13" height="40" fill="#334155"/>
  <rect x="204" y="295" width="54" height="58" rx="8" fill="#3b82f6"/>
  <rect x="212" y="285" width="38" height="15" fill="rgba(255,255,255,0.25)"/>
  <circle cx="231" cy="270" r="26" fill="#3b82f6"/>
  <rect x="216" y="260" width="30" height="14" rx="3" fill="#7dd3fc"/>
  <ellipse cx="292" cy="400" rx="22" ry="8" fill="rgba(0,0,0,0.4)"/>
  <rect x="279" y="352" width="13" height="40" fill="#334155"/>
  <rect x="294" y="352" width="13" height="40" fill="#334155"/>
  <rect x="276" y="295" width="54" height="58" rx="8" fill="#3b82f6"/>
  <rect x="284" y="285" width="38" height="15" fill="rgba(255,255,255,0.25)"/>
  <circle cx="303" cy="270" r="26" fill="#3b82f6"/>
  <rect x="288" y="260" width="30" height="14" rx="3" fill="#7dd3fc"/>
  <!-- 敵ボス -->
  <circle cx="256" cy="130" r="72" fill="#b91c1c"/>
  <circle cx="234" cy="115" r="16" fill="white"/>
  <circle cx="278" cy="115" r="16" fill="white"/>
  <circle cx="237" cy="115" r="9" fill="#1f2937"/>
  <circle cx="281" cy="115" r="9" fill="#1f2937"/>
  <text x="256" y="160" text-anchor="middle" fill="white" font-size="36" font-weight="bold" font-family="Arial">150</text>
  <!-- HPバー -->
  <rect x="180" y="215" width="152" height="14" rx="4" fill="#1f2937"/>
  <rect x="180" y="215" width="152" height="14" rx="4" fill="#22c55e"/>
  <!-- タイトル -->
  <text x="256" y="498" text-anchor="middle" fill="#fbbf24" font-size="28" font-weight="bold" font-family="Arial">クラウドランナー</text>
</svg>
