<svg xmlns="http://www.w3.org/2000/svg" viewBox="0 0 192 192" width="192" height="192">
  <rect width="192" height="192" rx="32" fill="#06061a"/>
  <!-- 道路 -->
  <rect x="56" y="0" width="80" height="192" fill="#1a1a28"/>
  <line x1="96" y1="10" x2="96" y2="182" stroke="#363660" stroke-width="4" stroke-dasharray="20,20"/>
  <!-- 兵士（青い装甲）-->
  <ellipse cx="82" cy="148" rx="8" ry="3" fill="rgba(0,0,0,0.4)"/>
  <rect x="77" y="130" width="5" height="14" fill="#334155"/>
  <rect x="83" y="130" width="5" height="14" fill="#334155"/>
  <rect x="76" y="112" width="20" height="20" rx="3" fill="#3b82f6"/>
  <circle cx="86" cy="106" r="9" fill="#3b82f6"/>
  <rect x="80" y="102" width="12" height="5" fill="#7dd3fc"/>
  <ellipse cx="110" cy="148" rx="8" ry="3" fill="rgba(0,0,0,0.4)"/>
  <rect x="105" y="130" width="5" height="14" fill="#334155"/>
  <rect x="111" y="130" width="5" height="14" fill="#334155"/>
  <rect x="104" y="112" width="20" height="20" rx="3" fill="#3b82f6"/>
  <circle cx="114" cy="106" r="9" fill="#3b82f6"/>
  <rect x="108" y="102" width="12" height="5" fill="#7dd3fc"/>
  <!-- 敵（赤い丸）-->
  <circle cx="96" cy="52" r="24" fill="#dc2626"/>
  <circle cx="88" cy="46" r="5" fill="white"/>
  <circle cx="104" cy="46" r="5" fill="white"/>
  <circle cx="89" cy="46" r="3" fill="#1f2937"/>
  <circle cx="105" cy="46" r="3" fill="#1f2937"/>
  <text x="96" y="62" text-anchor="middle" fill="white" font-size="12" font-weight="bold" font-family="Arial">8</text>
  <!-- タイトル -->
  <text x="96" y="185" text-anchor="middle" fill="#fbbf24" font-size="10" font-weight="bold" font-family="Arial">CloudRunner</text>
</svg>
